<mxfile host="app.diagrams.net" modified="2022-04-11T13:11:48.203Z" agent="5.0 (X11)" etag="08haDNC-Rzoqi_wBb88F" version="17.4.2" type="github">
  <diagram name="Page-1" id="5d7acffa-a066-3a61-03fe-96351882024d">
    <mxGraphModel dx="796" dy="481" grid="1" gridSize="10" guides="1" tooltips="1" connect="1" arrows="1" fold="1" page="1" pageScale="1" pageWidth="1100" pageHeight="850" background="#ffffff" math="0" shadow="0">
      <root>
        <mxCell id="0" />
        <mxCell id="1" parent="0" />
        <mxCell id="21ea969265ad0168-6" value="scan_circuit&lt;span style=&quot;white-space: pre&quot;&gt;	&lt;/span&gt;" style="swimlane;html=1;fontStyle=0;childLayout=stackLayout;horizontal=1;startSize=26;fillColor=#e0e0e0;horizontalStack=0;resizeParent=1;resizeLast=0;collapsible=1;marginBottom=0;swimlaneFillColor=#ffffff;align=center;rounded=1;shadow=0;comic=0;labelBackgroundColor=none;strokeWidth=1;fontFamily=Verdana;fontSize=12" parent="1" vertex="1">
          <mxGeometry x="160" y="80" width="140" height="86" as="geometry" />
        </mxCell>
        <mxCell id="21ea969265ad0168-8" value="&lt;div&gt;scan_subnet&lt;/div&gt;&lt;br&gt;" style="text;html=1;spacingLeft=4;spacingRight=4;whiteSpace=wrap;overflow=hidden;rotatable=0;points=[[0,0.5],[1,0.5]];portConstraint=eastwest;" parent="21ea969265ad0168-6" vertex="1">
          <mxGeometry y="26" width="140" height="26" as="geometry" />
        </mxCell>
        <mxCell id="21ea969265ad0168-9" value="&lt;div&gt;scan_target&lt;/div&gt;" style="text;html=1;spacingLeft=4;spacingRight=4;whiteSpace=wrap;overflow=hidden;rotatable=0;points=[[0,0.5],[1,0.5]];portConstraint=eastwest;" parent="21ea969265ad0168-6" vertex="1">
          <mxGeometry y="52" width="140" height="28" as="geometry" />
        </mxCell>
        <mxCell id="21ea969265ad0168-22" value="scan_target" style="swimlane;html=1;fontStyle=0;childLayout=stackLayout;horizontal=1;startSize=26;fillColor=#e0e0e0;horizontalStack=0;resizeParent=1;resizeLast=0;collapsible=1;marginBottom=0;swimlaneFillColor=#ffffff;align=center;rounded=1;shadow=0;comic=0;labelBackgroundColor=none;strokeWidth=1;fontFamily=Verdana;fontSize=12" parent="1" vertex="1">
          <mxGeometry x="150" y="250" width="160" height="104" as="geometry" />
        </mxCell>
        <mxCell id="21ea969265ad0168-23" value="step_masscan" style="text;html=1;strokeColor=none;fillColor=none;spacingLeft=4;spacingRight=4;whiteSpace=wrap;overflow=hidden;rotatable=0;points=[[0,0.5],[1,0.5]];portConstraint=eastwest;" parent="21ea969265ad0168-22" vertex="1">
          <mxGeometry y="26" width="160" height="26" as="geometry" />
        </mxCell>
        <mxCell id="21ea969265ad0168-24" value="step_nmap" style="text;html=1;strokeColor=none;fillColor=none;spacingLeft=4;spacingRight=4;whiteSpace=wrap;overflow=hidden;rotatable=0;points=[[0,0.5],[1,0.5]];portConstraint=eastwest;" parent="21ea969265ad0168-22" vertex="1">
          <mxGeometry y="52" width="160" height="26" as="geometry" />
        </mxCell>
        <mxCell id="kqKZN1Ewhi8eMAdQGqMA-25" value="step_scaners" style="text;html=1;strokeColor=none;fillColor=none;spacingLeft=4;spacingRight=4;whiteSpace=wrap;overflow=hidden;rotatable=0;points=[[0,0.5],[1,0.5]];portConstraint=eastwest;" vertex="1" parent="21ea969265ad0168-22">
          <mxGeometry y="78" width="160" height="26" as="geometry" />
        </mxCell>
        <mxCell id="kqKZN1Ewhi8eMAdQGqMA-6" style="edgeStyle=orthogonalEdgeStyle;rounded=0;orthogonalLoop=1;jettySize=auto;html=1;entryX=0.5;entryY=0;entryDx=0;entryDy=0;" edge="1" parent="1" source="21ea969265ad0168-8" target="21ea969265ad0168-10">
          <mxGeometry relative="1" as="geometry">
            <mxPoint x="440" y="113" as="targetPoint" />
          </mxGeometry>
        </mxCell>
        <mxCell id="21ea969265ad0168-10" value="scan_subnet" style="swimlane;html=1;fontStyle=0;childLayout=stackLayout;horizontal=1;startSize=26;fillColor=#e0e0e0;horizontalStack=0;resizeParent=1;resizeLast=0;collapsible=1;marginBottom=0;swimlaneFillColor=#ffffff;align=center;rounded=1;shadow=0;comic=0;labelBackgroundColor=none;strokeWidth=1;fontFamily=Verdana;fontSize=12" parent="1" vertex="1">
          <mxGeometry x="470" y="166" width="160" height="104" as="geometry" />
        </mxCell>
        <mxCell id="21ea969265ad0168-11" value="scan_target" style="text;html=1;strokeColor=none;fillColor=none;spacingLeft=4;spacingRight=4;whiteSpace=wrap;overflow=hidden;rotatable=0;points=[[0,0.5],[1,0.5]];portConstraint=eastwest;" parent="21ea969265ad0168-10" vertex="1">
          <mxGeometry y="26" width="160" height="26" as="geometry" />
        </mxCell>
        <mxCell id="21ea969265ad0168-12" value="finish_task" style="text;html=1;strokeColor=none;fillColor=none;spacingLeft=4;spacingRight=4;whiteSpace=wrap;overflow=hidden;rotatable=0;points=[[0,0.5],[1,0.5]];portConstraint=eastwest;" parent="21ea969265ad0168-10" vertex="1">
          <mxGeometry y="52" width="160" height="26" as="geometry" />
        </mxCell>
        <mxCell id="kqKZN1Ewhi8eMAdQGqMA-19" value="&lt;div&gt;step_scanners&lt;/div&gt;" style="swimlane;html=1;fontStyle=0;childLayout=stackLayout;horizontal=1;startSize=26;fillColor=#e0e0e0;horizontalStack=0;resizeParent=1;resizeLast=0;collapsible=1;marginBottom=0;swimlaneFillColor=#ffffff;align=center;rounded=1;shadow=0;comic=0;labelBackgroundColor=none;strokeWidth=1;fontFamily=Verdana;fontSize=12" vertex="1" parent="1">
          <mxGeometry x="470" y="438" width="160" height="104" as="geometry" />
        </mxCell>
        <mxCell id="kqKZN1Ewhi8eMAdQGqMA-20" value="update_task" style="text;html=1;strokeColor=none;fillColor=none;spacingLeft=4;spacingRight=4;whiteSpace=wrap;overflow=hidden;rotatable=0;points=[[0,0.5],[1,0.5]];portConstraint=eastwest;" vertex="1" parent="kqKZN1Ewhi8eMAdQGqMA-19">
          <mxGeometry y="26" width="160" height="26" as="geometry" />
        </mxCell>
        <mxCell id="kqKZN1Ewhi8eMAdQGqMA-21" value="run_async" style="text;html=1;strokeColor=none;fillColor=none;spacingLeft=4;spacingRight=4;whiteSpace=wrap;overflow=hidden;rotatable=0;points=[[0,0.5],[1,0.5]];portConstraint=eastwest;" vertex="1" parent="kqKZN1Ewhi8eMAdQGqMA-19">
          <mxGeometry y="52" width="160" height="26" as="geometry" />
        </mxCell>
        <mxCell id="kqKZN1Ewhi8eMAdQGqMA-22" value="write_result" style="text;html=1;strokeColor=none;fillColor=none;spacingLeft=4;spacingRight=4;whiteSpace=wrap;overflow=hidden;rotatable=0;points=[[0,0.5],[1,0.5]];portConstraint=eastwest;" vertex="1" parent="kqKZN1Ewhi8eMAdQGqMA-19">
          <mxGeometry y="78" width="160" height="26" as="geometry" />
        </mxCell>
        <mxCell id="kqKZN1Ewhi8eMAdQGqMA-28" style="edgeStyle=orthogonalEdgeStyle;rounded=0;orthogonalLoop=1;jettySize=auto;html=1;entryX=0.5;entryY=0;entryDx=0;entryDy=0;" edge="1" parent="1" source="kqKZN1Ewhi8eMAdQGqMA-25" target="kqKZN1Ewhi8eMAdQGqMA-19">
          <mxGeometry relative="1" as="geometry" />
        </mxCell>
        <mxCell id="kqKZN1Ewhi8eMAdQGqMA-70" value="" style="edgeStyle=orthogonalEdgeStyle;rounded=0;orthogonalLoop=1;jettySize=auto;html=1;shape=link;" edge="1" parent="1" source="kqKZN1Ewhi8eMAdQGqMA-49" target="kqKZN1Ewhi8eMAdQGqMA-61">
          <mxGeometry relative="1" as="geometry" />
        </mxCell>
        <mxCell id="kqKZN1Ewhi8eMAdQGqMA-49" value="&lt;div&gt;step_masscan&lt;/div&gt;" style="ellipse;whiteSpace=wrap;html=1;shadow=0;" vertex="1" parent="1">
          <mxGeometry x="120" y="460" width="120" height="60" as="geometry" />
        </mxCell>
        <mxCell id="kqKZN1Ewhi8eMAdQGqMA-52" style="edgeStyle=orthogonalEdgeStyle;rounded=0;orthogonalLoop=1;jettySize=auto;html=1;entryX=0.5;entryY=0;entryDx=0;entryDy=0;" edge="1" parent="1" source="21ea969265ad0168-23" target="kqKZN1Ewhi8eMAdQGqMA-49">
          <mxGeometry relative="1" as="geometry" />
        </mxCell>
        <mxCell id="kqKZN1Ewhi8eMAdQGqMA-71" value="" style="edgeStyle=orthogonalEdgeStyle;rounded=0;orthogonalLoop=1;jettySize=auto;html=1;entryX=0;entryY=0.154;entryDx=0;entryDy=0;entryPerimeter=0;shape=link;" edge="1" parent="1" source="kqKZN1Ewhi8eMAdQGqMA-61" target="kqKZN1Ewhi8eMAdQGqMA-19">
          <mxGeometry relative="1" as="geometry" />
        </mxCell>
        <mxCell id="kqKZN1Ewhi8eMAdQGqMA-61" value="&lt;div&gt;step_nmap&lt;/div&gt;" style="ellipse;whiteSpace=wrap;html=1;shadow=0;" vertex="1" parent="1">
          <mxGeometry x="280" y="460" width="120" height="60" as="geometry" />
        </mxCell>
        <mxCell id="kqKZN1Ewhi8eMAdQGqMA-63" style="edgeStyle=orthogonalEdgeStyle;rounded=0;orthogonalLoop=1;jettySize=auto;html=1;entryX=0.5;entryY=0;entryDx=0;entryDy=0;" edge="1" parent="1" source="21ea969265ad0168-23" target="kqKZN1Ewhi8eMAdQGqMA-61">
          <mxGeometry relative="1" as="geometry" />
        </mxCell>
        <mxCell id="kqKZN1Ewhi8eMAdQGqMA-76" value="finish_task" style="swimlane;html=1;fontStyle=0;childLayout=stackLayout;horizontal=1;startSize=26;fillColor=#e0e0e0;horizontalStack=0;resizeParent=1;resizeLast=0;collapsible=1;marginBottom=0;swimlaneFillColor=#ffffff;align=center;rounded=1;shadow=0;comic=0;labelBackgroundColor=none;strokeWidth=1;fontFamily=Verdana;fontSize=12" vertex="1" parent="1">
          <mxGeometry x="690" y="160" width="160" height="104" as="geometry" />
        </mxCell>
        <mxCell id="kqKZN1Ewhi8eMAdQGqMA-77" value="&lt;div&gt;update_task&lt;/div&gt;" style="text;html=1;strokeColor=none;fillColor=none;spacingLeft=4;spacingRight=4;whiteSpace=wrap;overflow=hidden;rotatable=0;points=[[0,0.5],[1,0.5]];portConstraint=eastwest;" vertex="1" parent="kqKZN1Ewhi8eMAdQGqMA-76">
          <mxGeometry y="26" width="160" height="26" as="geometry" />
        </mxCell>
        <mxCell id="kqKZN1Ewhi8eMAdQGqMA-79" style="edgeStyle=orthogonalEdgeStyle;rounded=0;orthogonalLoop=1;jettySize=auto;html=1;entryX=0.5;entryY=0;entryDx=0;entryDy=0;" edge="1" parent="1" source="21ea969265ad0168-12" target="kqKZN1Ewhi8eMAdQGqMA-76">
          <mxGeometry relative="1" as="geometry" />
        </mxCell>
        <mxCell id="kqKZN1Ewhi8eMAdQGqMA-81" style="edgeStyle=orthogonalEdgeStyle;rounded=0;orthogonalLoop=1;jettySize=auto;html=1;entryX=0.5;entryY=0;entryDx=0;entryDy=0;" edge="1" parent="1" source="kqKZN1Ewhi8eMAdQGqMA-20" target="kqKZN1Ewhi8eMAdQGqMA-76">
          <mxGeometry relative="1" as="geometry" />
        </mxCell>
        <mxCell id="kqKZN1Ewhi8eMAdQGqMA-83" style="edgeStyle=orthogonalEdgeStyle;rounded=0;orthogonalLoop=1;jettySize=auto;html=1;entryX=0.5;entryY=0;entryDx=0;entryDy=0;" edge="1" parent="1" source="21ea969265ad0168-9" target="21ea969265ad0168-22">
          <mxGeometry relative="1" as="geometry" />
        </mxCell>
        <mxCell id="kqKZN1Ewhi8eMAdQGqMA-85" style="edgeStyle=orthogonalEdgeStyle;rounded=0;orthogonalLoop=1;jettySize=auto;html=1;entryX=0.5;entryY=0;entryDx=0;entryDy=0;" edge="1" parent="1" source="21ea969265ad0168-11" target="21ea969265ad0168-22">
          <mxGeometry relative="1" as="geometry" />
        </mxCell>
      </root>
    </mxGraphModel>
  </diagram>
</mxfile>
